<mxfile host="app.diagrams.net" agent="Mozilla/5.0 (X11; Linux x86_64; rv:130.0) Gecko/20100101 Firefox/130.0" version="24.7.17" pages="5">
  <diagram name="Old flow" id="3P_YnobtgKW5ZYBk_1qQ">
    <mxGraphModel dx="3718" dy="1762" grid="1" gridSize="10" guides="1" tooltips="1" connect="1" arrows="1" fold="1" page="1" pageScale="1" pageWidth="850" pageHeight="1100" math="0" shadow="0">
      <root>
        <mxCell id="0" />
        <mxCell id="1" parent="0" />
        <mxCell id="gIt-CmtL92HrQL2QFble-1" value="" style="rounded=0;html=1;jettySize=auto;orthogonalLoop=1;fontSize=11;endArrow=block;endFill=0;endSize=8;strokeWidth=1;shadow=0;labelBackgroundColor=none;edgeStyle=orthogonalEdgeStyle;entryX=0;entryY=0.5;entryDx=0;entryDy=0;entryPerimeter=0;fillColor=#f8cecc;strokeColor=#b85450;" edge="1" parent="1" source="gIt-CmtL92HrQL2QFble-2" target="gIt-CmtL92HrQL2QFble-26">
          <mxGeometry relative="1" as="geometry">
            <mxPoint x="-220" y="355" as="targetPoint" />
          </mxGeometry>
        </mxCell>
        <mxCell id="gIt-CmtL92HrQL2QFble-2" value="Cleaned data" style="rounded=1;whiteSpace=wrap;html=1;fontSize=12;glass=0;strokeWidth=1;shadow=0;fillColor=#f8cecc;strokeColor=#b85450;" vertex="1" parent="1">
          <mxGeometry x="-380" y="335" width="120" height="40" as="geometry" />
        </mxCell>
        <mxCell id="gIt-CmtL92HrQL2QFble-3" style="edgeStyle=orthogonalEdgeStyle;rounded=0;orthogonalLoop=1;jettySize=auto;html=1;exitX=1;exitY=0.5;exitDx=0;exitDy=0;endArrow=block;endFill=0;fillColor=#d5e8d4;strokeColor=#82b366;" edge="1" parent="1" source="gIt-CmtL92HrQL2QFble-6" target="gIt-CmtL92HrQL2QFble-8">
          <mxGeometry relative="1" as="geometry" />
        </mxCell>
        <mxCell id="gIt-CmtL92HrQL2QFble-4" style="edgeStyle=orthogonalEdgeStyle;rounded=0;orthogonalLoop=1;jettySize=auto;html=1;exitX=0.5;exitY=1;exitDx=0;exitDy=0;entryX=0.5;entryY=0;entryDx=0;entryDy=0;fillColor=#dae8fc;strokeColor=#6c8ebf;endArrow=block;endFill=0;" edge="1" parent="1" source="gIt-CmtL92HrQL2QFble-6" target="gIt-CmtL92HrQL2QFble-14">
          <mxGeometry relative="1" as="geometry">
            <mxPoint x="-60" y="475" as="targetPoint" />
          </mxGeometry>
        </mxCell>
        <mxCell id="gIt-CmtL92HrQL2QFble-5" style="edgeStyle=orthogonalEdgeStyle;rounded=0;orthogonalLoop=1;jettySize=auto;html=1;exitX=1;exitY=1;exitDx=0;exitDy=0;entryX=0;entryY=1;entryDx=0;entryDy=0;endArrow=block;endFill=0;fillColor=#d5e8d4;strokeColor=#82b366;" edge="1" parent="1" source="gIt-CmtL92HrQL2QFble-6" target="gIt-CmtL92HrQL2QFble-19">
          <mxGeometry relative="1" as="geometry">
            <Array as="points">
              <mxPoint x="-35" y="425" />
              <mxPoint x="258" y="425" />
            </Array>
          </mxGeometry>
        </mxCell>
        <mxCell id="gIt-CmtL92HrQL2QFble-6" value="Baseline model(s)" style="rhombus;whiteSpace=wrap;html=1;shadow=0;fontFamily=Helvetica;fontSize=12;align=center;strokeWidth=1;spacing=6;spacingTop=-4;fillColor=#d5e8d4;strokeColor=#82b366;" vertex="1" parent="1">
          <mxGeometry x="-110" y="305" width="100" height="100" as="geometry" />
        </mxCell>
        <mxCell id="gIt-CmtL92HrQL2QFble-7" style="edgeStyle=orthogonalEdgeStyle;rounded=0;orthogonalLoop=1;jettySize=auto;html=1;exitX=0.5;exitY=0;exitDx=0;exitDy=0;entryX=0.5;entryY=1;entryDx=0;entryDy=0;endArrow=block;endFill=0;fillColor=#d5e8d4;strokeColor=#82b366;" edge="1" parent="1" source="gIt-CmtL92HrQL2QFble-8" target="gIt-CmtL92HrQL2QFble-10">
          <mxGeometry relative="1" as="geometry" />
        </mxCell>
        <mxCell id="gIt-CmtL92HrQL2QFble-8" value="K-fold Cross-validation" style="rhombus;whiteSpace=wrap;html=1;shadow=0;fontFamily=Helvetica;fontSize=12;align=center;strokeWidth=1;spacing=6;spacingTop=-4;fillColor=#d5e8d4;strokeColor=#82b366;" vertex="1" parent="1">
          <mxGeometry x="50" y="305" width="120" height="100" as="geometry" />
        </mxCell>
        <mxCell id="gIt-CmtL92HrQL2QFble-9" style="edgeStyle=orthogonalEdgeStyle;rounded=0;orthogonalLoop=1;jettySize=auto;html=1;entryX=1;entryY=0.5;entryDx=0;entryDy=0;endArrow=block;endFill=0;fillColor=#d5e8d4;strokeColor=#82b366;" edge="1" parent="1" source="gIt-CmtL92HrQL2QFble-10" target="gIt-CmtL92HrQL2QFble-12">
          <mxGeometry relative="1" as="geometry">
            <mxPoint x="-30" y="205" as="targetPoint" />
          </mxGeometry>
        </mxCell>
        <mxCell id="gIt-CmtL92HrQL2QFble-10" value="Metrics (MSE, Q^2)" style="rhombus;whiteSpace=wrap;html=1;fillColor=#d5e8d4;strokeColor=#82b366;" vertex="1" parent="1">
          <mxGeometry x="47.5" y="165" width="125" height="80" as="geometry" />
        </mxCell>
        <mxCell id="gIt-CmtL92HrQL2QFble-11" style="edgeStyle=orthogonalEdgeStyle;rounded=0;orthogonalLoop=1;jettySize=auto;html=1;exitX=0.5;exitY=1;exitDx=0;exitDy=0;entryX=0.5;entryY=0;entryDx=0;entryDy=0;endArrow=block;endFill=0;fillColor=#d5e8d4;strokeColor=#82b366;" edge="1" parent="1" source="gIt-CmtL92HrQL2QFble-12" target="gIt-CmtL92HrQL2QFble-6">
          <mxGeometry relative="1" as="geometry" />
        </mxCell>
        <mxCell id="gIt-CmtL92HrQL2QFble-12" value="Optimal # of LVs" style="rhombus;whiteSpace=wrap;html=1;fillColor=#d5e8d4;strokeColor=#82b366;" vertex="1" parent="1">
          <mxGeometry x="-115" y="160" width="110" height="90" as="geometry" />
        </mxCell>
        <mxCell id="gIt-CmtL92HrQL2QFble-13" style="edgeStyle=orthogonalEdgeStyle;rounded=0;orthogonalLoop=1;jettySize=auto;html=1;exitX=1;exitY=0.5;exitDx=0;exitDy=0;entryX=0;entryY=0.5;entryDx=0;entryDy=0;fillColor=#dae8fc;strokeColor=#6c8ebf;endArrow=block;endFill=0;" edge="1" parent="1" source="gIt-CmtL92HrQL2QFble-14" target="gIt-CmtL92HrQL2QFble-17">
          <mxGeometry relative="1" as="geometry">
            <mxPoint x="50" y="510" as="targetPoint" />
          </mxGeometry>
        </mxCell>
        <mxCell id="gIt-CmtL92HrQL2QFble-14" value="Importance of variables" style="rhombus;whiteSpace=wrap;html=1;fillColor=#dae8fc;strokeColor=#6c8ebf;" vertex="1" parent="1">
          <mxGeometry x="-112.5" y="460" width="105" height="100" as="geometry" />
        </mxCell>
        <mxCell id="gIt-CmtL92HrQL2QFble-15" value="Coefficients" style="text;html=1;align=center;verticalAlign=middle;resizable=0;points=[];autosize=1;strokeColor=none;fillColor=none;" vertex="1" parent="1">
          <mxGeometry x="-160" y="415" width="90" height="30" as="geometry" />
        </mxCell>
        <mxCell id="gIt-CmtL92HrQL2QFble-16" style="edgeStyle=orthogonalEdgeStyle;rounded=0;orthogonalLoop=1;jettySize=auto;html=1;exitX=1;exitY=0.5;exitDx=0;exitDy=0;entryX=1;entryY=1;entryDx=0;entryDy=0;fillColor=#dae8fc;strokeColor=#6c8ebf;endArrow=block;endFill=0;" edge="1" parent="1" source="gIt-CmtL92HrQL2QFble-17" target="gIt-CmtL92HrQL2QFble-19">
          <mxGeometry relative="1" as="geometry">
            <Array as="points">
              <mxPoint x="313" y="510" />
              <mxPoint x="313" y="427" />
            </Array>
          </mxGeometry>
        </mxCell>
        <mxCell id="gIt-CmtL92HrQL2QFble-17" value="New model(s)" style="rhombus;whiteSpace=wrap;html=1;fillColor=#dae8fc;strokeColor=#6c8ebf;" vertex="1" parent="1">
          <mxGeometry x="59.5" y="458.75" width="101" height="102.5" as="geometry" />
        </mxCell>
        <mxCell id="gIt-CmtL92HrQL2QFble-18" style="edgeStyle=orthogonalEdgeStyle;rounded=0;orthogonalLoop=1;jettySize=auto;html=1;exitX=1;exitY=0.5;exitDx=0;exitDy=0;entryX=0;entryY=0.5;entryDx=0;entryDy=0;fillColor=#e1d5e7;strokeColor=#9673a6;endArrow=block;endFill=0;" edge="1" parent="1" source="gIt-CmtL92HrQL2QFble-19" target="gIt-CmtL92HrQL2QFble-20">
          <mxGeometry relative="1" as="geometry">
            <mxPoint x="470" y="340" as="targetPoint" />
          </mxGeometry>
        </mxCell>
        <mxCell id="gIt-CmtL92HrQL2QFble-19" value="Prediction" style="rhombus;whiteSpace=wrap;html=1;fillColor=#e1d5e7;strokeColor=#9673a6;" vertex="1" parent="1">
          <mxGeometry x="230" y="285" width="110" height="110" as="geometry" />
        </mxCell>
        <mxCell id="gIt-CmtL92HrQL2QFble-20" value="Model comparison" style="rhombus;whiteSpace=wrap;html=1;fillColor=#e1d5e7;strokeColor=#9673a6;" vertex="1" parent="1">
          <mxGeometry x="440" y="297.5" width="90" height="85" as="geometry" />
        </mxCell>
        <mxCell id="gIt-CmtL92HrQL2QFble-21" value="Dimensionality&amp;nbsp;&lt;div&gt;reduction&lt;/div&gt;" style="text;html=1;align=center;verticalAlign=middle;resizable=0;points=[];autosize=1;strokeColor=none;fillColor=none;" vertex="1" parent="1">
          <mxGeometry x="-30" y="468" width="100" height="40" as="geometry" />
        </mxCell>
        <mxCell id="gIt-CmtL92HrQL2QFble-22" style="edgeStyle=orthogonalEdgeStyle;rounded=0;orthogonalLoop=1;jettySize=auto;html=1;entryX=0;entryY=0.5;entryDx=0;entryDy=0;endArrow=block;endFill=0;fillColor=#f8cecc;strokeColor=#b85450;" edge="1" parent="1" source="gIt-CmtL92HrQL2QFble-26" target="gIt-CmtL92HrQL2QFble-6">
          <mxGeometry relative="1" as="geometry" />
        </mxCell>
        <mxCell id="gIt-CmtL92HrQL2QFble-23" style="edgeStyle=orthogonalEdgeStyle;rounded=0;orthogonalLoop=1;jettySize=auto;html=1;exitX=0.5;exitY=0;exitDx=0;exitDy=0;entryX=0;entryY=0;entryDx=0;entryDy=0;endArrow=block;endFill=0;fillColor=#f8cecc;strokeColor=#b85450;" edge="1" parent="1">
          <mxGeometry relative="1" as="geometry">
            <mxPoint x="-180" y="315" as="sourcePoint" />
            <mxPoint x="80" y="330" as="targetPoint" />
            <Array as="points">
              <mxPoint x="-180" y="295" />
              <mxPoint x="80" y="295" />
            </Array>
          </mxGeometry>
        </mxCell>
        <mxCell id="gIt-CmtL92HrQL2QFble-24" style="edgeStyle=orthogonalEdgeStyle;rounded=0;orthogonalLoop=1;jettySize=auto;html=1;entryX=0.5;entryY=0;entryDx=0;entryDy=0;fillColor=#f8cecc;strokeColor=#b85450;endArrow=block;endFill=0;" edge="1" parent="1" source="gIt-CmtL92HrQL2QFble-26" target="gIt-CmtL92HrQL2QFble-19">
          <mxGeometry relative="1" as="geometry">
            <Array as="points">
              <mxPoint x="-180" y="265" />
              <mxPoint x="285" y="265" />
            </Array>
          </mxGeometry>
        </mxCell>
        <mxCell id="gIt-CmtL92HrQL2QFble-25" style="edgeStyle=orthogonalEdgeStyle;rounded=0;orthogonalLoop=1;jettySize=auto;html=1;exitX=0.5;exitY=1;exitDx=0;exitDy=0;fillColor=#f8cecc;strokeColor=#b85450;endArrow=block;endFill=0;" edge="1" parent="1" source="gIt-CmtL92HrQL2QFble-26" target="gIt-CmtL92HrQL2QFble-21">
          <mxGeometry relative="1" as="geometry">
            <Array as="points">
              <mxPoint x="-180" y="445" />
              <mxPoint x="20" y="445" />
            </Array>
          </mxGeometry>
        </mxCell>
        <mxCell id="gIt-CmtL92HrQL2QFble-26" value="Data preprocessing" style="ellipse;whiteSpace=wrap;html=1;fillColor=#f8cecc;strokeColor=#b85450;" vertex="1" parent="1">
          <mxGeometry x="-220" y="315" width="80" height="80" as="geometry" />
        </mxCell>
      </root>
    </mxGraphModel>
  </diagram>
  <diagram name="New Flow" id="nUBRV4y7MA12rOvyAVSl">
    <mxGraphModel grid="1" page="1" gridSize="10" guides="1" tooltips="1" connect="1" arrows="1" fold="1" pageScale="1" pageWidth="827" pageHeight="1169" math="0" shadow="0">
      <root>
        <mxCell id="0" />
        <mxCell id="1" parent="0" />
        <mxCell id="Nh0cv9nMsF43ayheAAE7-3" style="edgeStyle=orthogonalEdgeStyle;rounded=0;orthogonalLoop=1;jettySize=auto;html=1;exitX=0.5;exitY=1;exitDx=0;exitDy=0;entryX=0.5;entryY=0;entryDx=0;entryDy=0;fillColor=#f8cecc;strokeColor=#b85450;" edge="1" parent="1" source="Nh0cv9nMsF43ayheAAE7-1" target="Nh0cv9nMsF43ayheAAE7-2">
          <mxGeometry relative="1" as="geometry" />
        </mxCell>
        <mxCell id="Nh0cv9nMsF43ayheAAE7-1" value="Data Pretreatment" style="rounded=0;whiteSpace=wrap;html=1;fillColor=#f8cecc;strokeColor=#b85450;" vertex="1" parent="1">
          <mxGeometry x="120" y="60" width="120" height="60" as="geometry" />
        </mxCell>
        <mxCell id="Ms5_jTf5mmGw1Hs4olU1-3" value="" style="edgeStyle=orthogonalEdgeStyle;rounded=0;orthogonalLoop=1;jettySize=auto;html=1;fillColor=#d5e8d4;strokeColor=#82b366;" edge="1" parent="1" source="Nh0cv9nMsF43ayheAAE7-2" target="Ms5_jTf5mmGw1Hs4olU1-2">
          <mxGeometry relative="1" as="geometry" />
        </mxCell>
        <mxCell id="Nh0cv9nMsF43ayheAAE7-2" value="Model calibration" style="rounded=0;whiteSpace=wrap;html=1;fillColor=#d5e8d4;strokeColor=#82b366;" vertex="1" parent="1">
          <mxGeometry x="120" y="180" width="120" height="60" as="geometry" />
        </mxCell>
        <mxCell id="Ms5_jTf5mmGw1Hs4olU1-1" value="Cleaned data" style="text;html=1;align=center;verticalAlign=middle;resizable=0;points=[];autosize=1;strokeColor=none;fillColor=none;" vertex="1" parent="1">
          <mxGeometry x="180" y="140" width="90" height="30" as="geometry" />
        </mxCell>
        <mxCell id="VcIBpDShcMThgTOZ-5-a-2" value="" style="edgeStyle=orthogonalEdgeStyle;rounded=0;orthogonalLoop=1;jettySize=auto;html=1;fillColor=#dae8fc;strokeColor=#6c8ebf;" edge="1" parent="1" source="Ms5_jTf5mmGw1Hs4olU1-2" target="VcIBpDShcMThgTOZ-5-a-1">
          <mxGeometry relative="1" as="geometry" />
        </mxCell>
        <mxCell id="Ms5_jTf5mmGw1Hs4olU1-2" value="Parameter optimization" style="rounded=0;whiteSpace=wrap;html=1;fillColor=#dae8fc;strokeColor=#6c8ebf;" vertex="1" parent="1">
          <mxGeometry x="120" y="300" width="120" height="60" as="geometry" />
        </mxCell>
        <mxCell id="QYwI_aHUp_VWt_oE_kw7-1" value="Optimal LVs" style="text;html=1;align=center;verticalAlign=middle;resizable=0;points=[];autosize=1;strokeColor=none;fillColor=none;" vertex="1" parent="1">
          <mxGeometry x="180" y="260" width="90" height="30" as="geometry" />
        </mxCell>
        <mxCell id="VcIBpDShcMThgTOZ-5-a-5" value="" style="edgeStyle=orthogonalEdgeStyle;rounded=0;orthogonalLoop=1;jettySize=auto;html=1;fillColor=#f8cecc;strokeColor=#b85450;" edge="1" parent="1" source="VcIBpDShcMThgTOZ-5-a-1" target="VcIBpDShcMThgTOZ-5-a-4">
          <mxGeometry relative="1" as="geometry" />
        </mxCell>
        <mxCell id="VcIBpDShcMThgTOZ-5-a-1" value="Evaluation" style="rounded=0;whiteSpace=wrap;html=1;fillColor=#f8cecc;strokeColor=#b85450;" vertex="1" parent="1">
          <mxGeometry x="120" y="420" width="120" height="60" as="geometry" />
        </mxCell>
        <mxCell id="VcIBpDShcMThgTOZ-5-a-3" value="Optimal variables" style="text;html=1;align=center;verticalAlign=middle;resizable=0;points=[];autosize=1;strokeColor=none;fillColor=none;" vertex="1" parent="1">
          <mxGeometry x="180" y="380" width="120" height="30" as="geometry" />
        </mxCell>
        <mxCell id="VcIBpDShcMThgTOZ-5-a-4" value="Metrics&amp;nbsp;&lt;div&gt;(Q^2, RMSE)&lt;/div&gt;" style="shape=parallelogram;perimeter=parallelogramPerimeter;whiteSpace=wrap;html=1;fixedSize=1;fillColor=#f8cecc;strokeColor=#b85450;rounded=0;" vertex="1" parent="1">
          <mxGeometry x="120" y="540" width="120" height="60" as="geometry" />
        </mxCell>
        <mxCell id="VcIBpDShcMThgTOZ-5-a-6" value="Predictions" style="text;html=1;align=center;verticalAlign=middle;resizable=0;points=[];autosize=1;strokeColor=none;fillColor=none;" vertex="1" parent="1">
          <mxGeometry x="180" y="500" width="80" height="30" as="geometry" />
        </mxCell>
        <mxCell id="PiqcIgBK17uxYe_aaihp-4" value="" style="edgeStyle=orthogonalEdgeStyle;rounded=0;orthogonalLoop=1;jettySize=auto;html=1;fillColor=#d5e8d4;strokeColor=#82b366;" edge="1" parent="1" source="VcIBpDShcMThgTOZ-5-a-8" target="PiqcIgBK17uxYe_aaihp-3">
          <mxGeometry relative="1" as="geometry" />
        </mxCell>
        <mxCell id="VcIBpDShcMThgTOZ-5-a-8" value="Model parameters" style="whiteSpace=wrap;html=1;fillColor=#d5e8d4;strokeColor=#82b366;" vertex="1" parent="1">
          <mxGeometry x="560" y="60" width="120" height="60" as="geometry" />
        </mxCell>
        <mxCell id="VcIBpDShcMThgTOZ-5-a-9" value="General Modelling flow" style="text;html=1;align=center;verticalAlign=middle;resizable=0;points=[];autosize=1;strokeColor=none;fillColor=none;rounded=0;fontStyle=5;fontSize=15;" vertex="1" parent="1">
          <mxGeometry x="100" y="8" width="180" height="30" as="geometry" />
        </mxCell>
        <mxCell id="PiqcIgBK17uxYe_aaihp-1" value="Model calibration&amp;nbsp;&lt;div&gt;with crossvalidation&lt;/div&gt;" style="text;html=1;align=center;verticalAlign=middle;resizable=0;points=[];autosize=1;strokeColor=none;fillColor=none;rounded=0;fontStyle=5;fontSize=15;" vertex="1" parent="1">
          <mxGeometry x="500" width="150" height="50" as="geometry" />
        </mxCell>
        <mxCell id="PiqcIgBK17uxYe_aaihp-5" value="" style="edgeStyle=orthogonalEdgeStyle;rounded=0;orthogonalLoop=1;jettySize=auto;html=1;fillColor=#d5e8d4;strokeColor=#82b366;" edge="1" parent="1" source="PiqcIgBK17uxYe_aaihp-2" target="PiqcIgBK17uxYe_aaihp-3">
          <mxGeometry relative="1" as="geometry" />
        </mxCell>
        <mxCell id="PiqcIgBK17uxYe_aaihp-2" value="K-Fold data split" style="whiteSpace=wrap;html=1;fillColor=#d5e8d4;strokeColor=#82b366;" vertex="1" parent="1">
          <mxGeometry x="400" y="180" width="120" height="60" as="geometry" />
        </mxCell>
        <mxCell id="PiqcIgBK17uxYe_aaihp-8" value="" style="edgeStyle=orthogonalEdgeStyle;rounded=0;orthogonalLoop=1;jettySize=auto;html=1;fillColor=#d5e8d4;strokeColor=#82b366;" edge="1" parent="1" source="PiqcIgBK17uxYe_aaihp-3" target="PiqcIgBK17uxYe_aaihp-7">
          <mxGeometry relative="1" as="geometry" />
        </mxCell>
        <mxCell id="PiqcIgBK17uxYe_aaihp-3" value="Model fitting" style="whiteSpace=wrap;html=1;fillColor=#d5e8d4;strokeColor=#82b366;" vertex="1" parent="1">
          <mxGeometry x="560" y="180" width="120" height="60" as="geometry" />
        </mxCell>
        <mxCell id="PiqcIgBK17uxYe_aaihp-6" value="k-th subset&amp;nbsp;&lt;div&gt;of training samples&lt;/div&gt;" style="text;html=1;align=center;verticalAlign=middle;resizable=0;points=[];autosize=1;strokeColor=none;fillColor=none;" vertex="1" parent="1">
          <mxGeometry x="480" y="140" width="120" height="40" as="geometry" />
        </mxCell>
        <mxCell id="PiqcIgBK17uxYe_aaihp-14" value="" style="edgeStyle=orthogonalEdgeStyle;rounded=0;orthogonalLoop=1;jettySize=auto;html=1;fillColor=#d5e8d4;strokeColor=#82b366;" edge="1" parent="1" source="PiqcIgBK17uxYe_aaihp-7" target="PiqcIgBK17uxYe_aaihp-13">
          <mxGeometry relative="1" as="geometry" />
        </mxCell>
        <mxCell id="PiqcIgBK17uxYe_aaihp-7" value="Model validation" style="whiteSpace=wrap;html=1;fillColor=#d5e8d4;strokeColor=#82b366;" vertex="1" parent="1">
          <mxGeometry x="560" y="300" width="120" height="60" as="geometry" />
        </mxCell>
        <mxCell id="PiqcIgBK17uxYe_aaihp-9" value="Betas" style="text;html=1;align=center;verticalAlign=middle;resizable=0;points=[];autosize=1;strokeColor=none;fillColor=none;" vertex="1" parent="1">
          <mxGeometry x="620" y="260" width="50" height="30" as="geometry" />
        </mxCell>
        <mxCell id="PiqcIgBK17uxYe_aaihp-10" value="nLVs" style="text;html=1;align=center;verticalAlign=middle;resizable=0;points=[];autosize=1;strokeColor=none;fillColor=none;" vertex="1" parent="1">
          <mxGeometry x="620" y="140" width="50" height="30" as="geometry" />
        </mxCell>
        <mxCell id="PiqcIgBK17uxYe_aaihp-16" value="" style="edgeStyle=orthogonalEdgeStyle;rounded=0;orthogonalLoop=1;jettySize=auto;html=1;fillColor=#d5e8d4;strokeColor=#82b366;" edge="1" parent="1" source="PiqcIgBK17uxYe_aaihp-13" target="PiqcIgBK17uxYe_aaihp-15">
          <mxGeometry relative="1" as="geometry" />
        </mxCell>
        <mxCell id="PiqcIgBK17uxYe_aaihp-22" style="edgeStyle=orthogonalEdgeStyle;rounded=0;orthogonalLoop=1;jettySize=auto;html=1;entryX=0.5;entryY=1;entryDx=0;entryDy=0;fillColor=#d5e8d4;strokeColor=#82b366;" edge="1" parent="1" source="PiqcIgBK17uxYe_aaihp-13" target="PiqcIgBK17uxYe_aaihp-21">
          <mxGeometry relative="1" as="geometry" />
        </mxCell>
        <mxCell id="PiqcIgBK17uxYe_aaihp-13" value="k = K?" style="rhombus;whiteSpace=wrap;html=1;fillColor=#d5e8d4;strokeColor=#82b366;" vertex="1" parent="1">
          <mxGeometry x="580" y="400" width="80" height="80" as="geometry" />
        </mxCell>
        <mxCell id="PiqcIgBK17uxYe_aaihp-26" style="edgeStyle=orthogonalEdgeStyle;rounded=0;orthogonalLoop=1;jettySize=auto;html=1;exitX=0.5;exitY=1;exitDx=0;exitDy=0;entryX=0.5;entryY=0;entryDx=0;entryDy=0;fillColor=#d5e8d4;strokeColor=#82b366;" edge="1" parent="1" source="PiqcIgBK17uxYe_aaihp-15" target="PiqcIgBK17uxYe_aaihp-25">
          <mxGeometry relative="1" as="geometry" />
        </mxCell>
        <mxCell id="PiqcIgBK17uxYe_aaihp-15" value="Mean of Metrics over K-folds" style="whiteSpace=wrap;html=1;fillColor=#d5e8d4;strokeColor=#82b366;" vertex="1" parent="1">
          <mxGeometry x="560" y="540" width="120" height="60" as="geometry" />
        </mxCell>
        <mxCell id="PiqcIgBK17uxYe_aaihp-17" value="Yes" style="text;html=1;align=center;verticalAlign=middle;resizable=0;points=[];autosize=1;strokeColor=none;fillColor=none;" vertex="1" parent="1">
          <mxGeometry x="620" y="500" width="40" height="30" as="geometry" />
        </mxCell>
        <mxCell id="PiqcIgBK17uxYe_aaihp-19" value="No" style="text;html=1;align=center;verticalAlign=middle;resizable=0;points=[];autosize=1;strokeColor=none;fillColor=none;" vertex="1" parent="1">
          <mxGeometry x="540" y="410" width="40" height="30" as="geometry" />
        </mxCell>
        <mxCell id="PiqcIgBK17uxYe_aaihp-23" style="edgeStyle=orthogonalEdgeStyle;rounded=0;orthogonalLoop=1;jettySize=auto;html=1;entryX=0.5;entryY=1;entryDx=0;entryDy=0;fillColor=#d5e8d4;strokeColor=#82b366;" edge="1" parent="1" source="PiqcIgBK17uxYe_aaihp-21" target="PiqcIgBK17uxYe_aaihp-2">
          <mxGeometry relative="1" as="geometry" />
        </mxCell>
        <mxCell id="PiqcIgBK17uxYe_aaihp-21" value="k += 1" style="whiteSpace=wrap;html=1;fillColor=#d5e8d4;strokeColor=#82b366;" vertex="1" parent="1">
          <mxGeometry x="430" y="300" width="60" height="30" as="geometry" />
        </mxCell>
        <mxCell id="PiqcIgBK17uxYe_aaihp-24" value="Metrics" style="text;html=1;align=center;verticalAlign=middle;resizable=0;points=[];autosize=1;strokeColor=none;fillColor=none;" vertex="1" parent="1">
          <mxGeometry x="620" y="370" width="60" height="30" as="geometry" />
        </mxCell>
        <mxCell id="PiqcIgBK17uxYe_aaihp-28" value="" style="edgeStyle=orthogonalEdgeStyle;rounded=0;orthogonalLoop=1;jettySize=auto;html=1;fillColor=#d5e8d4;strokeColor=#82b366;" edge="1" parent="1" source="PiqcIgBK17uxYe_aaihp-25">
          <mxGeometry relative="1" as="geometry">
            <mxPoint x="620" y="800" as="targetPoint" />
          </mxGeometry>
        </mxCell>
        <mxCell id="PiqcIgBK17uxYe_aaihp-33" style="edgeStyle=orthogonalEdgeStyle;rounded=0;orthogonalLoop=1;jettySize=auto;html=1;exitX=0;exitY=0.5;exitDx=0;exitDy=0;entryX=0.5;entryY=1;entryDx=0;entryDy=0;fillColor=#d5e8d4;strokeColor=#82b366;" edge="1" parent="1" source="PiqcIgBK17uxYe_aaihp-25" target="PiqcIgBK17uxYe_aaihp-32">
          <mxGeometry relative="1" as="geometry" />
        </mxCell>
        <mxCell id="PiqcIgBK17uxYe_aaihp-25" value="nLVs =&amp;nbsp;&lt;div&gt;# of Features?&lt;/div&gt;" style="rhombus;whiteSpace=wrap;html=1;fillColor=#d5e8d4;strokeColor=#82b366;" vertex="1" parent="1">
          <mxGeometry x="560" y="640" width="120" height="100" as="geometry" />
        </mxCell>
        <mxCell id="PiqcIgBK17uxYe_aaihp-29" value="Yes" style="text;html=1;align=center;verticalAlign=middle;resizable=0;points=[];autosize=1;strokeColor=none;fillColor=none;" vertex="1" parent="1">
          <mxGeometry x="620" y="740" width="40" height="30" as="geometry" />
        </mxCell>
        <mxCell id="PiqcIgBK17uxYe_aaihp-30" value="No" style="text;html=1;align=center;verticalAlign=middle;resizable=0;points=[];autosize=1;strokeColor=none;fillColor=none;" vertex="1" parent="1">
          <mxGeometry x="520" y="660" width="40" height="30" as="geometry" />
        </mxCell>
        <mxCell id="PiqcIgBK17uxYe_aaihp-34" style="edgeStyle=orthogonalEdgeStyle;rounded=0;orthogonalLoop=1;jettySize=auto;html=1;exitX=0.5;exitY=0;exitDx=0;exitDy=0;entryX=0;entryY=0.5;entryDx=0;entryDy=0;fillColor=#d5e8d4;strokeColor=#82b366;" edge="1" parent="1" source="PiqcIgBK17uxYe_aaihp-32" target="VcIBpDShcMThgTOZ-5-a-8">
          <mxGeometry relative="1" as="geometry" />
        </mxCell>
        <mxCell id="PiqcIgBK17uxYe_aaihp-32" value="nLVs += 1" style="whiteSpace=wrap;html=1;fillColor=#d5e8d4;strokeColor=#82b366;" vertex="1" parent="1">
          <mxGeometry x="360" y="370" width="60" height="30" as="geometry" />
        </mxCell>
        <mxCell id="PiqcIgBK17uxYe_aaihp-35" value="Results of crossvalidation" style="shape=parallelogram;perimeter=parallelogramPerimeter;whiteSpace=wrap;html=1;fixedSize=1;fillColor=#d5e8d4;strokeColor=#82b366;" vertex="1" parent="1">
          <mxGeometry x="560" y="780" width="120" height="60" as="geometry" />
        </mxCell>
        <mxCell id="3akkL7tLjyHx38cImUVA-1" value="Parameter optimization&amp;nbsp;&lt;div&gt;with dimsensionality reduction&lt;/div&gt;" style="text;html=1;align=center;verticalAlign=middle;resizable=0;points=[];autosize=1;strokeColor=none;fillColor=none;rounded=0;fontStyle=5;fontSize=15;" vertex="1" parent="1">
          <mxGeometry x="777" width="220" height="50" as="geometry" />
        </mxCell>
        <mxCell id="3akkL7tLjyHx38cImUVA-4" value="" style="edgeStyle=orthogonalEdgeStyle;rounded=0;orthogonalLoop=1;jettySize=auto;html=1;fillColor=#dae8fc;strokeColor=#6c8ebf;" edge="1" parent="1" source="3akkL7tLjyHx38cImUVA-2" target="3akkL7tLjyHx38cImUVA-3">
          <mxGeometry relative="1" as="geometry" />
        </mxCell>
        <mxCell id="3akkL7tLjyHx38cImUVA-2" value="Full model" style="whiteSpace=wrap;html=1;fillColor=#dae8fc;strokeColor=#6c8ebf;" vertex="1" parent="1">
          <mxGeometry x="827" y="60" width="120" height="60" as="geometry" />
        </mxCell>
        <mxCell id="3akkL7tLjyHx38cImUVA-7" value="" style="edgeStyle=orthogonalEdgeStyle;rounded=0;orthogonalLoop=1;jettySize=auto;html=1;fillColor=#dae8fc;strokeColor=#6c8ebf;" edge="1" parent="1" source="3akkL7tLjyHx38cImUVA-3" target="3akkL7tLjyHx38cImUVA-6">
          <mxGeometry relative="1" as="geometry" />
        </mxCell>
        <mxCell id="3akkL7tLjyHx38cImUVA-3" value="Model fitting" style="whiteSpace=wrap;html=1;fillColor=#dae8fc;strokeColor=#6c8ebf;" vertex="1" parent="1">
          <mxGeometry x="827" y="180" width="120" height="60" as="geometry" />
        </mxCell>
        <mxCell id="3akkL7tLjyHx38cImUVA-5" value="Optimal # of LVs" style="text;html=1;align=center;verticalAlign=middle;resizable=0;points=[];autosize=1;strokeColor=none;fillColor=none;" vertex="1" parent="1">
          <mxGeometry x="887" y="140" width="110" height="30" as="geometry" />
        </mxCell>
        <mxCell id="3akkL7tLjyHx38cImUVA-10" value="" style="edgeStyle=orthogonalEdgeStyle;rounded=0;orthogonalLoop=1;jettySize=auto;html=1;fillColor=#dae8fc;strokeColor=#6c8ebf;" edge="1" parent="1" source="3akkL7tLjyHx38cImUVA-6" target="3akkL7tLjyHx38cImUVA-9">
          <mxGeometry relative="1" as="geometry" />
        </mxCell>
        <mxCell id="3akkL7tLjyHx38cImUVA-6" value="Variable importance analysis" style="whiteSpace=wrap;html=1;fillColor=#dae8fc;strokeColor=#6c8ebf;" vertex="1" parent="1">
          <mxGeometry x="827" y="300" width="120" height="60" as="geometry" />
        </mxCell>
        <mxCell id="3akkL7tLjyHx38cImUVA-8" value="Coefficients" style="text;html=1;align=center;verticalAlign=middle;resizable=0;points=[];autosize=1;strokeColor=none;fillColor=none;" vertex="1" parent="1">
          <mxGeometry x="887" y="260" width="90" height="30" as="geometry" />
        </mxCell>
        <mxCell id="Lc6biS_hbyWzV_l5GSRB-2" value="" style="edgeStyle=orthogonalEdgeStyle;rounded=0;orthogonalLoop=1;jettySize=auto;html=1;fillColor=#dae8fc;strokeColor=#6c8ebf;" edge="1" parent="1" source="3akkL7tLjyHx38cImUVA-9" target="Lc6biS_hbyWzV_l5GSRB-1">
          <mxGeometry relative="1" as="geometry" />
        </mxCell>
        <mxCell id="3akkL7tLjyHx38cImUVA-9" value="Reduced model" style="whiteSpace=wrap;html=1;fillColor=#dae8fc;strokeColor=#6c8ebf;" vertex="1" parent="1">
          <mxGeometry x="827" y="420" width="120" height="60" as="geometry" />
        </mxCell>
        <mxCell id="3akkL7tLjyHx38cImUVA-11" value="Most important variables" style="text;html=1;align=center;verticalAlign=middle;resizable=0;points=[];autosize=1;strokeColor=none;fillColor=none;" vertex="1" parent="1">
          <mxGeometry x="887" y="380" width="150" height="30" as="geometry" />
        </mxCell>
        <mxCell id="Lc6biS_hbyWzV_l5GSRB-1" value="Evaluation" style="whiteSpace=wrap;html=1;fillColor=#dae8fc;strokeColor=#6c8ebf;" vertex="1" parent="1">
          <mxGeometry x="827" y="540" width="120" height="60" as="geometry" />
        </mxCell>
        <mxCell id="Lc6biS_hbyWzV_l5GSRB-3" value="Optimized Betas" style="text;html=1;align=center;verticalAlign=middle;resizable=0;points=[];autosize=1;strokeColor=none;fillColor=none;" vertex="1" parent="1">
          <mxGeometry x="887" y="500" width="110" height="30" as="geometry" />
        </mxCell>
      </root>
    </mxGraphModel>
  </diagram>
  <diagram name="General flow" id="A6l1Q5E-uNWCQ7o6Ql_1">
    <mxGraphModel dx="2049" dy="1259" grid="1" gridSize="10" guides="1" tooltips="1" connect="1" arrows="1" fold="1" page="1" pageScale="1" pageWidth="827" pageHeight="1169" math="0" shadow="0">
      <root>
        <mxCell id="0" />
        <mxCell id="1" parent="0" />
        <mxCell id="AtO99DyVUEuOZSjqvL5Y-1" style="edgeStyle=orthogonalEdgeStyle;rounded=0;orthogonalLoop=1;jettySize=auto;html=1;exitX=0.5;exitY=1;exitDx=0;exitDy=0;entryX=0.5;entryY=0;entryDx=0;entryDy=0;fillColor=#f8cecc;strokeColor=#b85450;strokeWidth=1;fontFamily=Computer modern;fontSize=25;fontSource=https%3A%2F%2Fgithub.com%2Fspratt%2FComputer-Modern%2Fblob%2F478ef3d4716bea134f9fc5c14f9c976fda120ee5%2Fcmunbl-webfont.woff;" parent="1" source="AtO99DyVUEuOZSjqvL5Y-2" target="AtO99DyVUEuOZSjqvL5Y-4" edge="1">
          <mxGeometry relative="1" as="geometry" />
        </mxCell>
        <mxCell id="AtO99DyVUEuOZSjqvL5Y-2" value="Data Pretreatment" style="rounded=0;whiteSpace=wrap;html=1;fillColor=#f8cecc;strokeColor=#b85450;container=0;fontFamily=Computer modern;fontSize=32;fontSource=https%3A%2F%2Fgithub.com%2Fspratt%2FComputer-Modern%2Fblob%2F478ef3d4716bea134f9fc5c14f9c976fda120ee5%2Fcmunbl-webfont.woff;" parent="1" vertex="1">
          <mxGeometry x="170" y="120.00016949152544" width="440.00000000000006" height="115.93220338983052" as="geometry" />
        </mxCell>
        <mxCell id="AtO99DyVUEuOZSjqvL5Y-3" value="" style="edgeStyle=orthogonalEdgeStyle;rounded=0;orthogonalLoop=1;jettySize=auto;html=1;fillColor=#d5e8d4;strokeColor=#82b366;strokeWidth=1;fontFamily=Computer modern;fontSize=25;fontSource=https%3A%2F%2Fgithub.com%2Fspratt%2FComputer-Modern%2Fblob%2F478ef3d4716bea134f9fc5c14f9c976fda120ee5%2Fcmunbl-webfont.woff;" parent="1" source="AtO99DyVUEuOZSjqvL5Y-4" target="AtO99DyVUEuOZSjqvL5Y-7" edge="1">
          <mxGeometry relative="1" as="geometry" />
        </mxCell>
        <mxCell id="AtO99DyVUEuOZSjqvL5Y-4" value="Model calibration" style="rounded=0;whiteSpace=wrap;html=1;fillColor=#d5e8d4;strokeColor=#82b366;strokeWidth=1;container=0;fontFamily=Computer modern;fontSize=32;fontSource=https%3A%2F%2Fgithub.com%2Fspratt%2FComputer-Modern%2Fblob%2F478ef3d4716bea134f9fc5c14f9c976fda120ee5%2Fcmunbl-webfont.woff;" parent="1" vertex="1">
          <mxGeometry x="170" y="351.8645762711865" width="440.00000000000006" height="115.93220338983052" as="geometry" />
        </mxCell>
        <mxCell id="AtO99DyVUEuOZSjqvL5Y-5" value="Cleaned data" style="text;html=1;align=center;verticalAlign=middle;resizable=0;points=[];autosize=1;strokeColor=none;fillColor=none;strokeWidth=1;container=0;fontFamily=Computer modern;fontSize=25;fontSource=https%3A%2F%2Fgithub.com%2Fspratt%2FComputer-Modern%2Fblob%2F478ef3d4716bea134f9fc5c14f9c976fda120ee5%2Fcmunbl-webfont.woff;" parent="1" vertex="1">
          <mxGeometry x="201" y="269.57644067796616" width="190" height="40" as="geometry" />
        </mxCell>
        <mxCell id="AtO99DyVUEuOZSjqvL5Y-6" value="" style="edgeStyle=orthogonalEdgeStyle;rounded=0;orthogonalLoop=1;jettySize=auto;html=1;fillColor=#dae8fc;strokeColor=#6c8ebf;strokeWidth=1;fontFamily=Computer modern;fontSize=25;fontSource=https%3A%2F%2Fgithub.com%2Fspratt%2FComputer-Modern%2Fblob%2F478ef3d4716bea134f9fc5c14f9c976fda120ee5%2Fcmunbl-webfont.woff;" parent="1" source="AtO99DyVUEuOZSjqvL5Y-7" target="AtO99DyVUEuOZSjqvL5Y-10" edge="1">
          <mxGeometry relative="1" as="geometry" />
        </mxCell>
        <mxCell id="AtO99DyVUEuOZSjqvL5Y-7" value="Parameter optimization" style="rounded=0;whiteSpace=wrap;html=1;fillColor=#dae8fc;strokeColor=#6c8ebf;strokeWidth=1;container=0;fontFamily=Computer modern;fontSize=32;fontSource=https%3A%2F%2Fgithub.com%2Fspratt%2FComputer-Modern%2Fblob%2F478ef3d4716bea134f9fc5c14f9c976fda120ee5%2Fcmunbl-webfont.woff;" parent="1" vertex="1">
          <mxGeometry x="170" y="583.7289830508475" width="440.00000000000006" height="115.93220338983052" as="geometry" />
        </mxCell>
        <mxCell id="AtO99DyVUEuOZSjqvL5Y-8" value="Optimal LVs" style="text;html=1;align=center;verticalAlign=middle;resizable=0;points=[];autosize=1;strokeColor=none;fillColor=none;strokeWidth=1;container=0;fontFamily=Computer modern;fontSize=25;fontSource=https%3A%2F%2Fgithub.com%2Fspratt%2FComputer-Modern%2Fblob%2F478ef3d4716bea134f9fc5c14f9c976fda120ee5%2Fcmunbl-webfont.woff;" parent="1" vertex="1">
          <mxGeometry x="206" y="501.44084745762717" width="180" height="40" as="geometry" />
        </mxCell>
        <mxCell id="AtO99DyVUEuOZSjqvL5Y-9" value="" style="edgeStyle=orthogonalEdgeStyle;rounded=0;orthogonalLoop=1;jettySize=auto;html=1;fillColor=#f8cecc;strokeColor=#b85450;strokeWidth=1;fontFamily=Computer modern;fontSize=25;fontSource=https%3A%2F%2Fgithub.com%2Fspratt%2FComputer-Modern%2Fblob%2F478ef3d4716bea134f9fc5c14f9c976fda120ee5%2Fcmunbl-webfont.woff;" parent="1" source="AtO99DyVUEuOZSjqvL5Y-10" target="AtO99DyVUEuOZSjqvL5Y-12" edge="1">
          <mxGeometry relative="1" as="geometry" />
        </mxCell>
        <mxCell id="AtO99DyVUEuOZSjqvL5Y-10" value="Evaluation" style="rounded=0;whiteSpace=wrap;html=1;fillColor=#f8cecc;strokeColor=#b85450;strokeWidth=1;container=0;fontFamily=Computer modern;fontSize=32;fontSource=https%3A%2F%2Fgithub.com%2Fspratt%2FComputer-Modern%2Fblob%2F478ef3d4716bea134f9fc5c14f9c976fda120ee5%2Fcmunbl-webfont.woff;" parent="1" vertex="1">
          <mxGeometry x="170" y="815.5933898305086" width="440.00000000000006" height="115.93220338983052" as="geometry" />
        </mxCell>
        <mxCell id="AtO99DyVUEuOZSjqvL5Y-11" value="&lt;div style=&quot;font-size: 25px;&quot;&gt;Optimal&lt;/div&gt;&lt;div style=&quot;font-size: 25px;&quot;&gt;variables&lt;/div&gt;" style="text;html=1;align=center;verticalAlign=middle;resizable=0;points=[];autosize=1;strokeColor=none;fillColor=none;strokeWidth=1;container=0;fontFamily=Computer modern;fontSize=25;fontSource=https%3A%2F%2Fgithub.com%2Fspratt%2FComputer-Modern%2Fblob%2F478ef3d4716bea134f9fc5c14f9c976fda120ee5%2Fcmunbl-webfont.woff;" parent="1" vertex="1">
          <mxGeometry x="226" y="713.3852542372881" width="140" height="70" as="geometry" />
        </mxCell>
        <mxCell id="AtO99DyVUEuOZSjqvL5Y-12" value="Metrics&amp;nbsp;&lt;div style=&quot;font-size: 32px;&quot;&gt;(Q², RMSE)&lt;/div&gt;" style="shape=parallelogram;perimeter=parallelogramPerimeter;whiteSpace=wrap;html=1;fixedSize=1;fillColor=#f8cecc;strokeColor=#b85450;rounded=0;strokeWidth=1;container=0;fontFamily=Computer modern;fontSize=32;fontSource=https%3A%2F%2Fgithub.com%2Fspratt%2FComputer-Modern%2Fblob%2F478ef3d4716bea134f9fc5c14f9c976fda120ee5%2Fcmunbl-webfont.woff;" parent="1" vertex="1">
          <mxGeometry x="170" y="1042.9977966101694" width="440.00000000000006" height="115.93220338983052" as="geometry" />
        </mxCell>
        <mxCell id="AtO99DyVUEuOZSjqvL5Y-13" value="Predictions" style="text;html=1;align=center;verticalAlign=middle;resizable=0;points=[];autosize=1;strokeColor=none;fillColor=none;strokeWidth=1;container=0;fontFamily=Computer modern;fontSize=25;fontSource=https%3A%2F%2Fgithub.com%2Fspratt%2FComputer-Modern%2Fblob%2F478ef3d4716bea134f9fc5c14f9c976fda120ee5%2Fcmunbl-webfont.woff;" parent="1" vertex="1">
          <mxGeometry x="211" y="968.3896610169493" width="170" height="40" as="geometry" />
        </mxCell>
        <mxCell id="9rmF_Dvli8BL6WIRr6ve-1" value="General Modelling flow" style="text;html=1;align=center;verticalAlign=middle;resizable=0;points=[];autosize=1;strokeColor=none;fillColor=none;rounded=0;fontStyle=1;fontSize=32;container=0;fontFamily=Computer modern;fontSource=https%3A%2F%2Fgithub.com%2Fspratt%2FComputer-Modern%2Fblob%2F478ef3d4716bea134f9fc5c14f9c976fda120ee5%2Fcmunbl-webfont.woff;" parent="1" vertex="1">
          <mxGeometry x="190" y="30" width="400" height="50" as="geometry" />
        </mxCell>
      </root>
    </mxGraphModel>
  </diagram>
  <diagram name="Calibration" id="Y_N8tM-NWA5tbX0qMdlI">
    <mxGraphModel dx="2049" dy="1259" grid="1" gridSize="10" guides="1" tooltips="1" connect="1" arrows="1" fold="1" page="1" pageScale="1" pageWidth="827" pageHeight="1169" math="0" shadow="0">
      <root>
        <mxCell id="0" />
        <mxCell id="1" parent="0" />
        <mxCell id="HC-4eTAnl6PQGrB7JYA--1" value="" style="edgeStyle=orthogonalEdgeStyle;rounded=0;orthogonalLoop=1;jettySize=auto;html=1;fillColor=#d5e8d4;strokeColor=#82b366;fontColor=#000000;fontFamily=Computer modern;fontSource=https%3A%2F%2Fgithub.com%2Fspratt%2FComputer-Modern%2Fblob%2F478ef3d4716bea134f9fc5c14f9c976fda120ee5%2Fcmunbl-webfont.woff;fontSize=27;" parent="1" source="HC-4eTAnl6PQGrB7JYA--2" target="HC-4eTAnl6PQGrB7JYA--6" edge="1">
          <mxGeometry relative="1" as="geometry" />
        </mxCell>
        <mxCell id="HC-4eTAnl6PQGrB7JYA--2" value="Model parameters" style="whiteSpace=wrap;html=1;fillColor=#d5e8d4;strokeColor=#82b366;fontColor=#000000;fontFamily=Computer modern;fontSource=https%3A%2F%2Fgithub.com%2Fspratt%2FComputer-Modern%2Fblob%2F478ef3d4716bea134f9fc5c14f9c976fda120ee5%2Fcmunbl-webfont.woff;fontSize=27;" parent="1" vertex="1">
          <mxGeometry x="410" y="120" width="160" height="60" as="geometry" />
        </mxCell>
        <mxCell id="HC-4eTAnl6PQGrB7JYA--22" value="" style="edgeStyle=orthogonalEdgeStyle;rounded=0;orthogonalLoop=1;jettySize=auto;html=1;fillColor=#d5e8d4;strokeColor=#82b366;entryX=0.5;entryY=0;entryDx=0;entryDy=0;fontColor=#000000;fontFamily=Computer modern;fontSource=https%3A%2F%2Fgithub.com%2Fspratt%2FComputer-Modern%2Fblob%2F478ef3d4716bea134f9fc5c14f9c976fda120ee5%2Fcmunbl-webfont.woff;fontSize=27;" parent="1" source="HC-4eTAnl6PQGrB7JYA--24" target="HC-4eTAnl6PQGrB7JYA--29" edge="1">
          <mxGeometry relative="1" as="geometry">
            <mxPoint x="511.25" y="860" as="targetPoint" />
          </mxGeometry>
        </mxCell>
        <mxCell id="HC-4eTAnl6PQGrB7JYA--27" style="edgeStyle=orthogonalEdgeStyle;rounded=0;orthogonalLoop=1;jettySize=auto;html=1;exitX=0.5;exitY=0;exitDx=0;exitDy=0;fillColor=#d5e8d4;strokeColor=#82b366;fontColor=#000000;fontFamily=Computer modern;fontSource=https%3A%2F%2Fgithub.com%2Fspratt%2FComputer-Modern%2Fblob%2F478ef3d4716bea134f9fc5c14f9c976fda120ee5%2Fcmunbl-webfont.woff;fontSize=27;" parent="1" source="HC-4eTAnl6PQGrB7JYA--28" target="HC-4eTAnl6PQGrB7JYA--2" edge="1">
          <mxGeometry relative="1" as="geometry">
            <Array as="points">
              <mxPoint x="720" y="150" />
            </Array>
          </mxGeometry>
        </mxCell>
        <mxCell id="LXlAwFxmOWdpdfeXkK6a-1" value="Model calibration" style="text;html=1;align=center;verticalAlign=middle;resizable=0;points=[];autosize=1;strokeColor=none;fillColor=none;rounded=0;fontStyle=1;fontSize=32;fontColor=#000000;fontFamily=Computer modern;fontSource=https%3A%2F%2Fgithub.com%2Fspratt%2FComputer-Modern%2Fblob%2F478ef3d4716bea134f9fc5c14f9c976fda120ee5%2Fcmunbl-webfont.woff;" parent="1" vertex="1">
          <mxGeometry x="325" y="30" width="310" height="50" as="geometry" />
        </mxCell>
        <mxCell id="HC-4eTAnl6PQGrB7JYA--3" value="" style="edgeStyle=orthogonalEdgeStyle;rounded=0;orthogonalLoop=1;jettySize=auto;html=1;fillColor=#d5e8d4;strokeColor=#82b366;fontColor=#000000;fontFamily=Computer modern;fontSource=https%3A%2F%2Fgithub.com%2Fspratt%2FComputer-Modern%2Fblob%2F478ef3d4716bea134f9fc5c14f9c976fda120ee5%2Fcmunbl-webfont.woff;fontSize=27;" parent="1" source="HC-4eTAnl6PQGrB7JYA--4" target="HC-4eTAnl6PQGrB7JYA--6" edge="1">
          <mxGeometry relative="1" as="geometry" />
        </mxCell>
        <mxCell id="HC-4eTAnl6PQGrB7JYA--4" value="&lt;div&gt;K-Fold&amp;nbsp;&lt;/div&gt;&lt;div&gt;data split&lt;/div&gt;" style="whiteSpace=wrap;html=1;fillColor=#d5e8d4;strokeColor=#82b366;fontColor=#000000;fontFamily=Computer modern;fontSource=https%3A%2F%2Fgithub.com%2Fspratt%2FComputer-Modern%2Fblob%2F478ef3d4716bea134f9fc5c14f9c976fda120ee5%2Fcmunbl-webfont.woff;fontSize=27;" parent="1" vertex="1">
          <mxGeometry x="150" y="250" width="185" height="80" as="geometry" />
        </mxCell>
        <mxCell id="HC-4eTAnl6PQGrB7JYA--5" value="" style="edgeStyle=orthogonalEdgeStyle;rounded=0;orthogonalLoop=1;jettySize=auto;html=1;fillColor=#d5e8d4;strokeColor=#82b366;fontColor=#000000;fontFamily=Computer modern;fontSource=https%3A%2F%2Fgithub.com%2Fspratt%2FComputer-Modern%2Fblob%2F478ef3d4716bea134f9fc5c14f9c976fda120ee5%2Fcmunbl-webfont.woff;fontSize=27;" parent="1" source="HC-4eTAnl6PQGrB7JYA--6" target="HC-4eTAnl6PQGrB7JYA--9" edge="1">
          <mxGeometry relative="1" as="geometry" />
        </mxCell>
        <mxCell id="HC-4eTAnl6PQGrB7JYA--6" value="Model fitting" style="whiteSpace=wrap;html=1;fillColor=#d5e8d4;strokeColor=#82b366;fontColor=#000000;fontFamily=Computer modern;fontSource=https%3A%2F%2Fgithub.com%2Fspratt%2FComputer-Modern%2Fblob%2F478ef3d4716bea134f9fc5c14f9c976fda120ee5%2Fcmunbl-webfont.woff;fontSize=27;" parent="1" vertex="1">
          <mxGeometry x="380" y="250" width="220" height="80" as="geometry" />
        </mxCell>
        <mxCell id="HC-4eTAnl6PQGrB7JYA--8" value="" style="edgeStyle=orthogonalEdgeStyle;rounded=0;orthogonalLoop=1;jettySize=auto;html=1;fillColor=#d5e8d4;strokeColor=#82b366;fontColor=#000000;fontFamily=Computer modern;fontSource=https%3A%2F%2Fgithub.com%2Fspratt%2FComputer-Modern%2Fblob%2F478ef3d4716bea134f9fc5c14f9c976fda120ee5%2Fcmunbl-webfont.woff;fontSize=27;" parent="1" source="HC-4eTAnl6PQGrB7JYA--9" target="HC-4eTAnl6PQGrB7JYA--14" edge="1">
          <mxGeometry relative="1" as="geometry" />
        </mxCell>
        <mxCell id="HC-4eTAnl6PQGrB7JYA--9" value="Model validation" style="whiteSpace=wrap;html=1;fillColor=#d5e8d4;strokeColor=#82b366;fontColor=#000000;fontFamily=Computer modern;fontSource=https%3A%2F%2Fgithub.com%2Fspratt%2FComputer-Modern%2Fblob%2F478ef3d4716bea134f9fc5c14f9c976fda120ee5%2Fcmunbl-webfont.woff;fontSize=27;" parent="1" vertex="1">
          <mxGeometry x="380" y="410" width="220" height="80" as="geometry" />
        </mxCell>
        <mxCell id="HC-4eTAnl6PQGrB7JYA--10" value="Betas" style="text;html=1;align=center;verticalAlign=middle;resizable=0;points=[];autosize=1;strokeColor=none;fillColor=none;fontColor=#000000;fontFamily=Computer modern;fontSource=https%3A%2F%2Fgithub.com%2Fspratt%2FComputer-Modern%2Fblob%2F478ef3d4716bea134f9fc5c14f9c976fda120ee5%2Fcmunbl-webfont.woff;fontSize=25;" parent="1" vertex="1">
          <mxGeometry x="495" y="355" width="90" height="40" as="geometry" />
        </mxCell>
        <mxCell id="HC-4eTAnl6PQGrB7JYA--11" value="&lt;font style=&quot;font-size: 25px;&quot;&gt;nLVs&lt;/font&gt;" style="text;html=1;align=center;verticalAlign=middle;resizable=0;points=[];autosize=1;strokeColor=none;fillColor=none;fontColor=#000000;fontFamily=Computer modern;fontSource=https%3A%2F%2Fgithub.com%2Fspratt%2FComputer-Modern%2Fblob%2F478ef3d4716bea134f9fc5c14f9c976fda120ee5%2Fcmunbl-webfont.woff;fontSize=27;" parent="1" vertex="1">
          <mxGeometry x="495" y="190" width="80" height="50" as="geometry" />
        </mxCell>
        <mxCell id="HC-4eTAnl6PQGrB7JYA--12" value="" style="edgeStyle=orthogonalEdgeStyle;rounded=0;orthogonalLoop=1;jettySize=auto;html=1;fillColor=#d5e8d4;strokeColor=#82b366;fontColor=#000000;fontFamily=Computer modern;fontSource=https%3A%2F%2Fgithub.com%2Fspratt%2FComputer-Modern%2Fblob%2F478ef3d4716bea134f9fc5c14f9c976fda120ee5%2Fcmunbl-webfont.woff;fontSize=27;" parent="1" source="HC-4eTAnl6PQGrB7JYA--14" target="HC-4eTAnl6PQGrB7JYA--16" edge="1">
          <mxGeometry relative="1" as="geometry" />
        </mxCell>
        <mxCell id="HC-4eTAnl6PQGrB7JYA--13" style="edgeStyle=orthogonalEdgeStyle;rounded=0;orthogonalLoop=1;jettySize=auto;html=1;entryX=0.5;entryY=1;entryDx=0;entryDy=0;fillColor=#d5e8d4;strokeColor=#82b366;fontColor=#000000;fontFamily=Computer modern;fontSource=https%3A%2F%2Fgithub.com%2Fspratt%2FComputer-Modern%2Fblob%2F478ef3d4716bea134f9fc5c14f9c976fda120ee5%2Fcmunbl-webfont.woff;fontSize=27;" parent="1" source="HC-4eTAnl6PQGrB7JYA--14" target="HC-4eTAnl6PQGrB7JYA--20" edge="1">
          <mxGeometry relative="1" as="geometry" />
        </mxCell>
        <mxCell id="HC-4eTAnl6PQGrB7JYA--14" value="k = K?" style="rhombus;whiteSpace=wrap;html=1;fillColor=#d5e8d4;strokeColor=#82b366;fontColor=#000000;fontFamily=Computer modern;fontSource=https%3A%2F%2Fgithub.com%2Fspratt%2FComputer-Modern%2Fblob%2F478ef3d4716bea134f9fc5c14f9c976fda120ee5%2Fcmunbl-webfont.woff;fontSize=27;" parent="1" vertex="1">
          <mxGeometry x="415" y="550" width="150" height="110" as="geometry" />
        </mxCell>
        <mxCell id="HC-4eTAnl6PQGrB7JYA--15" style="edgeStyle=orthogonalEdgeStyle;rounded=0;orthogonalLoop=1;jettySize=auto;html=1;exitX=0.5;exitY=1;exitDx=0;exitDy=0;entryX=0.5;entryY=0;entryDx=0;entryDy=0;fillColor=#d5e8d4;strokeColor=#82b366;fontColor=#000000;fontFamily=Computer modern;fontSource=https%3A%2F%2Fgithub.com%2Fspratt%2FComputer-Modern%2Fblob%2F478ef3d4716bea134f9fc5c14f9c976fda120ee5%2Fcmunbl-webfont.woff;fontSize=27;" parent="1" source="HC-4eTAnl6PQGrB7JYA--16" target="HC-4eTAnl6PQGrB7JYA--24" edge="1">
          <mxGeometry relative="1" as="geometry" />
        </mxCell>
        <mxCell id="HC-4eTAnl6PQGrB7JYA--16" value="Mean metrics " style="whiteSpace=wrap;html=1;fillColor=#d5e8d4;strokeColor=#82b366;fontColor=#000000;fontFamily=Computer modern;fontSource=https%3A%2F%2Fgithub.com%2Fspratt%2FComputer-Modern%2Fblob%2F478ef3d4716bea134f9fc5c14f9c976fda120ee5%2Fcmunbl-webfont.woff;fontSize=27;" parent="1" vertex="1">
          <mxGeometry x="380" y="720" width="220" height="80" as="geometry" />
        </mxCell>
        <mxCell id="HC-4eTAnl6PQGrB7JYA--17" value="Yes" style="text;html=1;align=center;verticalAlign=middle;resizable=0;points=[];autosize=1;strokeColor=none;fillColor=none;fontColor=#000000;fontFamily=Computer modern;fontSource=https%3A%2F%2Fgithub.com%2Fspratt%2FComputer-Modern%2Fblob%2F478ef3d4716bea134f9fc5c14f9c976fda120ee5%2Fcmunbl-webfont.woff;fontSize=27;" parent="1" vertex="1">
          <mxGeometry x="495" y="660" width="70" height="50" as="geometry" />
        </mxCell>
        <mxCell id="HC-4eTAnl6PQGrB7JYA--18" value="No" style="text;html=1;align=center;verticalAlign=middle;resizable=0;points=[];autosize=1;strokeColor=none;fillColor=none;fontColor=#000000;fontFamily=Computer modern;fontSource=https%3A%2F%2Fgithub.com%2Fspratt%2FComputer-Modern%2Fblob%2F478ef3d4716bea134f9fc5c14f9c976fda120ee5%2Fcmunbl-webfont.woff;fontSize=27;" parent="1" vertex="1">
          <mxGeometry x="296" y="555" width="60" height="50" as="geometry" />
        </mxCell>
        <mxCell id="HC-4eTAnl6PQGrB7JYA--19" style="edgeStyle=orthogonalEdgeStyle;rounded=0;orthogonalLoop=1;jettySize=auto;html=1;entryX=0.5;entryY=1;entryDx=0;entryDy=0;fillColor=#d5e8d4;strokeColor=#82b366;fontColor=#000000;fontFamily=Computer modern;fontSource=https%3A%2F%2Fgithub.com%2Fspratt%2FComputer-Modern%2Fblob%2F478ef3d4716bea134f9fc5c14f9c976fda120ee5%2Fcmunbl-webfont.woff;fontSize=27;" parent="1" source="HC-4eTAnl6PQGrB7JYA--20" target="HC-4eTAnl6PQGrB7JYA--4" edge="1">
          <mxGeometry relative="1" as="geometry" />
        </mxCell>
        <mxCell id="HC-4eTAnl6PQGrB7JYA--20" value="k += 1" style="whiteSpace=wrap;html=1;fillColor=#d5e8d4;strokeColor=#82b366;fontColor=#000000;fontFamily=Computer modern;fontSource=https%3A%2F%2Fgithub.com%2Fspratt%2FComputer-Modern%2Fblob%2F478ef3d4716bea134f9fc5c14f9c976fda120ee5%2Fcmunbl-webfont.woff;fontSize=27;" parent="1" vertex="1">
          <mxGeometry x="182.5" y="390" width="120" height="60" as="geometry" />
        </mxCell>
        <mxCell id="HC-4eTAnl6PQGrB7JYA--21" value="Metrics" style="text;html=1;align=center;verticalAlign=middle;resizable=0;points=[];autosize=1;strokeColor=none;fillColor=none;fontColor=#000000;fontFamily=Computer modern;fontSource=https%3A%2F%2Fgithub.com%2Fspratt%2FComputer-Modern%2Fblob%2F478ef3d4716bea134f9fc5c14f9c976fda120ee5%2Fcmunbl-webfont.woff;fontSize=25;" parent="1" vertex="1">
          <mxGeometry x="495" y="505" width="120" height="40" as="geometry" />
        </mxCell>
        <mxCell id="A8bfpgZxt7NMew-23mmB-2" style="edgeStyle=orthogonalEdgeStyle;rounded=0;orthogonalLoop=1;jettySize=auto;html=1;fillColor=#d5e8d4;strokeColor=#82b366;" edge="1" parent="1" source="HC-4eTAnl6PQGrB7JYA--24" target="HC-4eTAnl6PQGrB7JYA--28">
          <mxGeometry relative="1" as="geometry" />
        </mxCell>
        <mxCell id="HC-4eTAnl6PQGrB7JYA--24" value="nLVs =&amp;nbsp;&lt;div style=&quot;font-size: 27px;&quot;&gt;# of Features?&lt;/div&gt;" style="rhombus;whiteSpace=wrap;html=1;fillColor=#d5e8d4;strokeColor=#82b366;fontColor=#000000;fontFamily=Computer modern;fontSource=https%3A%2F%2Fgithub.com%2Fspratt%2FComputer-Modern%2Fblob%2F478ef3d4716bea134f9fc5c14f9c976fda120ee5%2Fcmunbl-webfont.woff;fontSize=27;" parent="1" vertex="1">
          <mxGeometry x="327.5" y="850" width="325" height="160" as="geometry" />
        </mxCell>
        <mxCell id="HC-4eTAnl6PQGrB7JYA--25" value="Yes" style="text;html=1;align=center;verticalAlign=middle;resizable=0;points=[];autosize=1;strokeColor=none;fillColor=none;fontColor=#000000;fontFamily=Computer modern;fontSource=https%3A%2F%2Fgithub.com%2Fspratt%2FComputer-Modern%2Fblob%2F478ef3d4716bea134f9fc5c14f9c976fda120ee5%2Fcmunbl-webfont.woff;fontSize=27;" parent="1" vertex="1">
          <mxGeometry x="495" y="1010" width="70" height="50" as="geometry" />
        </mxCell>
        <mxCell id="HC-4eTAnl6PQGrB7JYA--26" value="No" style="text;html=1;align=center;verticalAlign=middle;resizable=0;points=[];autosize=1;strokeColor=none;fillColor=none;fontColor=#000000;fontFamily=Computer modern;fontSource=https%3A%2F%2Fgithub.com%2Fspratt%2FComputer-Modern%2Fblob%2F478ef3d4716bea134f9fc5c14f9c976fda120ee5%2Fcmunbl-webfont.woff;fontSize=27;" parent="1" vertex="1">
          <mxGeometry x="652.5" y="735" width="60" height="50" as="geometry" />
        </mxCell>
        <mxCell id="HC-4eTAnl6PQGrB7JYA--28" value="nLVs += 1" style="whiteSpace=wrap;html=1;fillColor=#d5e8d4;strokeColor=#82b366;fontColor=#000000;fontFamily=Computer modern;fontSource=https%3A%2F%2Fgithub.com%2Fspratt%2FComputer-Modern%2Fblob%2F478ef3d4716bea134f9fc5c14f9c976fda120ee5%2Fcmunbl-webfont.woff;fontSize=27;" parent="1" vertex="1">
          <mxGeometry x="665" y="505" width="110" height="90" as="geometry" />
        </mxCell>
        <mxCell id="HC-4eTAnl6PQGrB7JYA--29" value="&lt;div&gt;Mean metrics&lt;/div&gt;&lt;div&gt;for # LVs&lt;/div&gt;" style="shape=parallelogram;perimeter=parallelogramPerimeter;whiteSpace=wrap;html=1;fixedSize=1;fillColor=#d5e8d4;strokeColor=#82b366;fontColor=#000000;fontFamily=Computer modern;fontSource=https%3A%2F%2Fgithub.com%2Fspratt%2FComputer-Modern%2Fblob%2F478ef3d4716bea134f9fc5c14f9c976fda120ee5%2Fcmunbl-webfont.woff;fontSize=27;" parent="1" vertex="1">
          <mxGeometry x="345" y="1080" width="290" height="80" as="geometry" />
        </mxCell>
      </root>
    </mxGraphModel>
  </diagram>
  <diagram name="Optimization" id="-a_ETWZWOaCRooYyoEwq">
    <mxGraphModel dx="2049" dy="1259" grid="1" gridSize="10" guides="1" tooltips="1" connect="1" arrows="1" fold="1" page="1" pageScale="1" pageWidth="827" pageHeight="1169" math="0" shadow="0">
      <root>
        <mxCell id="0" />
        <mxCell id="1" parent="0" />
        <mxCell id="Zh2wxG7j-IjE71XZJxr8-1" value="" style="edgeStyle=orthogonalEdgeStyle;rounded=0;orthogonalLoop=1;jettySize=auto;html=1;fillColor=#dae8fc;strokeColor=#6c8ebf;fontFamily=Computer modern;fontSource=https%3A%2F%2Fgithub.com%2Fspratt%2FComputer-Modern%2Fblob%2F478ef3d4716bea134f9fc5c14f9c976fda120ee5%2Fcmunbl-webfont.woff;fontSize=32;" parent="1" source="Zh2wxG7j-IjE71XZJxr8-2" target="Zh2wxG7j-IjE71XZJxr8-4" edge="1">
          <mxGeometry relative="1" as="geometry" />
        </mxCell>
        <mxCell id="Zh2wxG7j-IjE71XZJxr8-2" value="Full model" style="whiteSpace=wrap;html=1;fillColor=#dae8fc;strokeColor=#6c8ebf;container=0;fontFamily=Computer modern;fontSource=https%3A%2F%2Fgithub.com%2Fspratt%2FComputer-Modern%2Fblob%2F478ef3d4716bea134f9fc5c14f9c976fda120ee5%2Fcmunbl-webfont.woff;fontSize=32;flipV=1;" parent="1" vertex="1">
          <mxGeometry x="173.81363636363642" y="120.0022950819672" width="452.727272727273" height="115.08196721311475" as="geometry" />
        </mxCell>
        <mxCell id="Zh2wxG7j-IjE71XZJxr8-3" value="" style="edgeStyle=orthogonalEdgeStyle;rounded=0;orthogonalLoop=1;jettySize=auto;html=1;fillColor=#dae8fc;strokeColor=#6c8ebf;fontFamily=Computer modern;fontSource=https%3A%2F%2Fgithub.com%2Fspratt%2FComputer-Modern%2Fblob%2F478ef3d4716bea134f9fc5c14f9c976fda120ee5%2Fcmunbl-webfont.woff;fontSize=32;" parent="1" source="Zh2wxG7j-IjE71XZJxr8-4" target="Zh2wxG7j-IjE71XZJxr8-7" edge="1">
          <mxGeometry relative="1" as="geometry" />
        </mxCell>
        <mxCell id="Zh2wxG7j-IjE71XZJxr8-4" value="Model fitting" style="whiteSpace=wrap;html=1;fillColor=#dae8fc;strokeColor=#6c8ebf;container=0;fontFamily=Computer modern;fontSource=https%3A%2F%2Fgithub.com%2Fspratt%2FComputer-Modern%2Fblob%2F478ef3d4716bea134f9fc5c14f9c976fda120ee5%2Fcmunbl-webfont.woff;fontSize=32;flipV=1;" parent="1" vertex="1">
          <mxGeometry x="173.81363636363642" y="360" width="452.727272727273" height="115.08196721311475" as="geometry" />
        </mxCell>
        <mxCell id="Zh2wxG7j-IjE71XZJxr8-5" value="Optimal # of LVs" style="text;html=1;align=center;verticalAlign=middle;resizable=0;points=[];autosize=1;strokeColor=none;fillColor=none;container=0;fontFamily=Computer modern;fontSource=https%3A%2F%2Fgithub.com%2Fspratt%2FComputer-Modern%2Fblob%2F478ef3d4716bea134f9fc5c14f9c976fda120ee5%2Fcmunbl-webfont.woff;fontSize=25;flipV=1;" parent="1" vertex="1">
          <mxGeometry x="399.9972727272729" y="280" width="240" height="40" as="geometry" />
        </mxCell>
        <mxCell id="Zh2wxG7j-IjE71XZJxr8-6" value="" style="edgeStyle=orthogonalEdgeStyle;rounded=0;orthogonalLoop=1;jettySize=auto;html=1;fillColor=#dae8fc;strokeColor=#6c8ebf;fontFamily=Computer modern;fontSource=https%3A%2F%2Fgithub.com%2Fspratt%2FComputer-Modern%2Fblob%2F478ef3d4716bea134f9fc5c14f9c976fda120ee5%2Fcmunbl-webfont.woff;fontSize=32;" parent="1" source="Zh2wxG7j-IjE71XZJxr8-7" target="Zh2wxG7j-IjE71XZJxr8-10" edge="1">
          <mxGeometry relative="1" as="geometry" />
        </mxCell>
        <mxCell id="Zh2wxG7j-IjE71XZJxr8-7" value="Variable importance analysis" style="whiteSpace=wrap;html=1;fillColor=#dae8fc;strokeColor=#6c8ebf;container=0;fontFamily=Computer modern;fontSource=https%3A%2F%2Fgithub.com%2Fspratt%2FComputer-Modern%2Fblob%2F478ef3d4716bea134f9fc5c14f9c976fda120ee5%2Fcmunbl-webfont.woff;fontSize=32;flipV=1;" parent="1" vertex="1">
          <mxGeometry x="173.81363636363642" y="600" width="452.727272727273" height="115.08196721311475" as="geometry" />
        </mxCell>
        <mxCell id="Zh2wxG7j-IjE71XZJxr8-8" value="Coefficients" style="text;html=1;align=center;verticalAlign=middle;resizable=0;points=[];autosize=1;strokeColor=none;fillColor=none;container=0;fontFamily=Computer modern;fontSource=https%3A%2F%2Fgithub.com%2Fspratt%2FComputer-Modern%2Fblob%2F478ef3d4716bea134f9fc5c14f9c976fda120ee5%2Fcmunbl-webfont.woff;fontSize=25;flipV=1;" parent="1" vertex="1">
          <mxGeometry x="399.9972727272729" y="520" width="170" height="40" as="geometry" />
        </mxCell>
        <mxCell id="Zh2wxG7j-IjE71XZJxr8-10" value="Optimal variables" style="whiteSpace=wrap;html=1;fillColor=#dae8fc;strokeColor=#6c8ebf;container=0;fontFamily=Computer modern;fontSource=https%3A%2F%2Fgithub.com%2Fspratt%2FComputer-Modern%2Fblob%2F478ef3d4716bea134f9fc5c14f9c976fda120ee5%2Fcmunbl-webfont.woff;fontSize=32;flipV=1;" parent="1" vertex="1">
          <mxGeometry x="173.81363636363642" y="840.0040983606559" width="452.727272727273" height="115.08196721311475" as="geometry" />
        </mxCell>
        <mxCell id="8uabfI5KbDGkZrEzxbeZ-1" value="Parameter optimization&amp;nbsp;" style="text;html=1;align=center;verticalAlign=middle;resizable=0;points=[];autosize=1;strokeColor=none;fillColor=none;rounded=0;fontStyle=1;fontSize=32;container=0;fontFamily=Computer modern;fontSource=https%3A%2F%2Fgithub.com%2Fspratt%2FComputer-Modern%2Fblob%2F478ef3d4716bea134f9fc5c14f9c976fda120ee5%2Fcmunbl-webfont.woff;" parent="1" vertex="1">
          <mxGeometry x="204" y="30" width="420" height="50" as="geometry" />
        </mxCell>
      </root>
    </mxGraphModel>
  </diagram>
</mxfile>
